<?xml version="1.0" encoding="UTF-8" standalone="no"?>
<!DOCTYPE svg PUBLIC "-//W3C//DTD SVG 1.1//EN" "http://www.w3.org/Graphics/SVG/1.1/DTD/svg11.dtd">
<svg width="100%" height="100%" viewBox="0 0 100 120" version="1.1" xmlns="http://www.w3.org/2000/svg" xmlns:xlink="http://www.w3.org/1999/xlink" xml:space="preserve" xmlns:serif="http://www.serif.com/" style="fill-rule:evenodd;clip-rule:evenodd;stroke-linejoin:round;stroke-miterlimit:2;">
    <g id="path4599" transform="matrix(-1.5129,-5.17021,5.17021,-1.5129,-4821,1757.65)">
        <path d="M59.732,956.401C59.122,955.008 57.428,954.565 56.033,954.688L47.29,955.384C45.354,953.47 42.983,953.179 43.158,952.567C43.295,952.089 43.704,952.32 43.995,951.056C44.275,949.843 43.28,948.601 42.079,948.342C40.901,947.996 39.419,948.55 39.051,949.794C38.603,951.024 39.325,952.493 40.551,952.934C41.951,953.571 44.797,953.427 45.388,955.954C44.003,957.366 42.395,956.91 40.966,956.41C39.78,955.994 38.232,955.925 37.317,956.945C36.435,957.922 36.516,959.696 37.693,960.41C38.846,961.252 40.786,961.162 41.517,959.768C42.081,958.694 41.426,957.926 41.855,957.6C42.179,957.355 43.615,957.962 46.605,957.532L54.29,962.996C55.284,963.607 56.607,963.975 57.868,963.187L49.965,957.296L59.732,956.401L59.732,956.401ZM42.656,949.529C43.702,950.58 43.06,952.436 41.662,952.43C40.376,952.502 39.207,950.937 39.943,949.776C40.46,948.799 41.941,948.809 42.656,949.529ZM40.501,957.251C41.662,958.103 40.812,960.237 39.407,960.153C38.444,960.206 37.317,959.41 37.524,958.353C37.713,957.049 39.513,956.339 40.501,957.251Z" style="fill-rule:nonzero;"/>
    </g>
</svg>
